<svg width="160" height="21" viewBox="0 0 160 21" fill="none" xmlns="http://www.w3.org/2000/svg">
<g clip-path="url(#clip0_3_7)">
<path d="M0 0.0520175C0.465066 1.88388 2.03825 3.75042 4.20282 4.2185H10.731L11.064 4.35141V20.9307H15.1405V4.35141L15.5137 4.2185H22.0476C24.2294 3.65218 25.7739 1.8781 26.2274 0.0520175V0.0115662H0V0.0520175Z" fill="#E82127"/>
<path d="M40.346 20.9769H55.8539C58.0127 20.5435 59.6146 18.6307 60.0625 16.7815H36.1374C36.5852 18.6365 38.2101 20.5492 40.346 20.9769Z" fill="#E82127"/>
<path d="M40.346 12.4763H55.8539C58.0127 12.0487 59.6146 10.1359 60.0625 8.28094H36.1374C36.5852 10.1359 38.2101 12.0487 40.346 12.4763Z" fill="#E82127"/>
<path d="M40.346 4.20116H55.8539C58.0127 3.76775 59.6146 1.85498 60.0625 0H36.1374C36.5852 1.85498 38.2101 3.76775 40.346 4.20116Z" fill="#E82127"/>
<path d="M75.7139 4.1607H90.0391C92.198 3.53082 94.0123 1.87231 94.4544 0.034668H71.6948V12.4128H90.3205V16.7584L75.7082 16.7699C73.4173 17.4114 71.4767 18.9601 70.5063 21.0058L71.6891 20.9827H94.3166V8.29829H75.7025V4.1607" fill="#E82127"/>
<path d="M124.477 20.9827C126.509 20.1159 127.606 18.6134 128.025 16.8566H109.928L109.939 0.0289001L105.88 0.0404577V20.9827H124.471" fill="#E82127"/>
<path d="M140.278 4.21271H155.791C157.945 3.7793 159.546 1.86654 160 0.017334H136.069C136.517 1.86654 138.142 3.78508 140.278 4.21271Z" fill="#E82127"/>
<path d="M136.695 8.30984V20.9711H140.731V12.5399H155.418V20.9711H159.449V8.33296L136.701 8.30984" fill="#E82127"/>
</g>
<defs>
<clipPath id="clip0_3_7">
<rect width="160" height="21" fill="white"/>
</clipPath>
</defs>
</svg>
