<svg width="204" height="203" viewBox="0 0 204 203" fill="none" xmlns="http://www.w3.org/2000/svg">
<g clip-path="url(#clip0_3_23)">
<path d="M102.016 203L130.551 42.5938C157.758 42.5938 166.334 45.5765 167.573 57.7404C167.573 57.7404 185.819 50.9389 195.03 37.1269C159.11 20.4929 123.021 19.7453 123.021 19.7453L101.96 45.3755H102.008L80.9467 19.7372C80.9467 19.7372 44.8578 20.4849 8.9458 37.1188C18.141 50.9309 36.3947 57.7324 36.3947 57.7324C37.6416 45.5604 46.2093 42.5858 73.2318 42.5616L102 202.992" fill="#F0F0F0"/>
<path d="M102 12.3488C131.034 12.1237 164.267 16.8349 198.288 31.6519C202.833 23.4756 204.008 19.8578 204.008 19.8578C166.817 5.16143 131.991 0.128634 102 0C72.009 0.128634 37.1831 5.16142 0 19.8659C0 19.8659 1.65723 24.3198 5.71181 31.66C39.7252 16.8349 72.9663 12.1237 102 12.3488Z" fill="#F0F0F0"/>
</g>
<defs>
<clipPath id="clip0_3_23">
<rect width="204" height="203" fill="white"/>
</clipPath>
</defs>
</svg>
